<?xml version="1.0" encoding="iso-8859-1"?>
<!-- Generator: Adobe Illustrator 18.1.1, SVG Export Plug-In . SVG Version: 6.00 Build 0)  -->
<svg xmlns="http://www.w3.org/2000/svg" xmlns:xlink="http://www.w3.org/1999/xlink" version="1.1" id="Capa_1" x="0px" y="0px" viewBox="0 0 21.755 21.755" style="enable-background:new 0 0 21.755 21.755;" xml:space="preserve" width="512px" height="512px">
<g>
	<g>
		<path d="M11.639,8.196l-1.131-1.131l3.042-3.042l4.257,4.256l-3.043,3.042l-2.209-2.208l1.575-1.575    c0.252-0.252,0.252-0.664,0-0.917c-0.252-0.252-0.664-0.252-0.916,0L11.639,8.196z M5.137,16.529    c-0.252,0.252-0.664,0.252-0.916,0c-0.252-0.252-0.252-0.664,0-0.916l3.802-3.801l-1.131-1.131l-4.846,4.846L0.339,21.49    l5.963-1.707l4.846-4.847l-2.209-2.208L5.137,16.529z M21.755,4.307l-4.244-4.245l-2.813,2.814l4.244,4.246L21.755,4.307z     M16.511,12.715c-0.35,0.001-0.69,0.042-1.016,0.116L8.718,6.093c0.178-0.485,0.273-1.01,0.272-1.557    c-0.007-2.48-2.026-4.487-4.507-4.48c-0.032,0-0.065,0-0.097,0.001l0.337,1.241c0.868,0.421,1.468,1.31,1.47,2.342    c0.003,1.439-1.161,2.61-2.601,2.615c-1.294,0.003-2.37-0.937-2.578-2.172L0.188,3.261C0.064,3.673-0.001,4.11,0,4.562    c0.008,2.48,2.026,4.488,4.508,4.48C4.933,9.041,5.344,8.98,5.733,8.869l6.642,6.605c-0.225,0.537-0.348,1.127-0.348,1.746    c0.01,2.479,2.027,4.487,4.51,4.479c0.031,0,0.064,0,0.096,0l-0.336-1.242c-0.869-0.422-1.469-1.311-1.473-2.34    c-0.004-1.439,1.16-2.61,2.602-2.614c1.293-0.005,2.369,0.936,2.578,2.171l0.826,0.82c0.125-0.412,0.189-0.849,0.188-1.301    C21.011,14.715,18.992,12.708,16.511,12.715z" fill="#c93031"/>
	</g>
</g>
<g>
</g>
<g>
</g>
<g>
</g>
<g>
</g>
<g>
</g>
<g>
</g>
<g>
</g>
<g>
</g>
<g>
</g>
<g>
</g>
<g>
</g>
<g>
</g>
<g>
</g>
<g>
</g>
<g>
</g>
</svg>
